<?xml version="1.0" encoding="UTF-8" standalone="no"?>
<!-- Created with Inkscape (http://www.inkscape.org/) -->

<svg
   width="50mm"
   height="50mm"
   viewBox="0 0 50 50"
   version="1.1"
   id="svg5"
   inkscape:version="1.2.2 (b0a8486541, 2022-12-01)"
   sodipodi:docname="lol.svg"
   xml:space="preserve"
   inkscape:export-filename="../../static/favicon.png"
   inkscape:export-xdpi="96"
   inkscape:export-ydpi="96"
   xmlns:inkscape="http://www.inkscape.org/namespaces/inkscape"
   xmlns:sodipodi="http://sodipodi.sourceforge.net/DTD/sodipodi-0.dtd"
   xmlns="http://www.w3.org/2000/svg"
   xmlns:svg="http://www.w3.org/2000/svg"><sodipodi:namedview
     id="namedview7"
     pagecolor="#ffffff"
     bordercolor="#000000"
     borderopacity="0.25"
     inkscape:showpageshadow="2"
     inkscape:pageopacity="0.0"
     inkscape:pagecheckerboard="0"
     inkscape:deskcolor="#d1d1d1"
     inkscape:document-units="mm"
     showgrid="false"
     inkscape:zoom="3.0281459"
     inkscape:cx="90.154176"
     inkscape:cy="75.954067"
     inkscape:window-width="1920"
     inkscape:window-height="1050"
     inkscape:window-x="0"
     inkscape:window-y="0"
     inkscape:window-maximized="1"
     inkscape:current-layer="layer1" /><defs
     id="defs2"><rect
       x="15.738014"
       y="19.511675"
       width="345.66309"
       height="339.63849"
       id="rect5418" /></defs><g
     inkscape:label="Layer 1"
     inkscape:groupmode="layer"
     id="layer1"><path
       id="rect17295"
       style="fill:#ff2a2a;fill-opacity:0.704565;stroke-width:0.285429;-inkscape-stroke:none;stop-color:#000000"
       d="m 0.22726938,30.705522 c -0.30285301,0.302854 -0.30311194,0.790561 -2.5989e-4,1.093413 L 7.3618142,38.93374 c 0.3028521,0.302853 0.7905603,0.302592 1.0934134,-2.6e-4 L 20.412977,26.975729 32.370728,38.93348 c 0.302854,0.302852 0.790559,0.303113 1.093412,2.6e-4 l 7.134804,-7.134805 c 0.302853,-0.302852 0.302594,-0.790559 -2.58e-4,-1.093412 L 28.094357,18.201197 20.959553,11.066392 c -0.302853,-0.302854 -0.790299,-0.302854 -1.093153,0 l -7.134804,7.134805 z" /><path
       id="rect17295-1"
       style="fill:#ff2a2a;fill-opacity:1;stroke-width:0.285429;-inkscape-stroke:none;stop-color:#000000"
       d="m 9.4013153,30.705522 c -0.3028531,0.302853 -0.3031127,0.790561 -2.596e-4,1.093412 l 7.1348043,7.134805 c 0.302853,0.302853 0.79056,0.302592 1.093413,-2.6e-4 l 11.95775,-11.95775 11.957751,11.95775 c 0.302852,0.302852 0.79056,0.303113 1.093412,2.6e-4 l 7.134805,-7.134805 c 0.302852,-0.302852 0.302592,-0.790559 -2.61e-4,-1.093412 L 37.268404,18.201196 30.133599,11.066391 c -0.302853,-0.302853 -0.7903,-0.302853 -1.093152,0 l -7.134807,7.134805 z" /></g></svg>
